<?xml version="1.0" encoding="utf-8"?>
<!-- Generator: Adobe Illustrator 24.1.2, SVG Export Plug-In . SVG Version: 6.00 Build 0)  -->
<svg version="1.1" id="Layer_1" xmlns="http://www.w3.org/2000/svg" xmlns:xlink="http://www.w3.org/1999/xlink" x="0px" y="0px"
	 viewBox="0 0 360 360" style="enable-background:new 0 0 360 360;" xml:space="preserve">
<style type="text/css">
	.st0{fill:#F2ECD9;}
	.st1{fill:#A35C32;}
</style>
<path class="st0" d="M180.0001831,360h-0.0003662C80.5886612,360,0,279.4113464,0,180.0001831v-0.0003662
	C0,80.5886612,80.5886612,0,179.9998169,0h0.0003662C279.4113464,0,360,80.5886612,360,179.9998169v0.0003662
	C360,279.4113464,279.4113464,360,180.0001831,360z"/>
<g>
	<path class="st1" d="M219.9273529,55.050869c15.5219116,0,28.1048431,23.612011,28.1048431,43.6178703
		c0,20.0059814-12.5829315,36.2241287-28.1048431,36.2241287c-15.5218201,0-28.1048431-16.2181473-28.1048431-36.2241287
		C191.8225098,78.6628799,204.4055328,55.050869,219.9273529,55.050869z"/>
	<path class="st1" d="M140.0726318,55.050869c15.5218201,0,28.1048431,23.612011,28.1048431,43.6178703
		c0,20.0059814-12.5830231,36.2241287-28.1048431,36.2241287c-15.521904,0-28.1048279-16.2181473-28.1048279-36.2241287
		C111.967804,78.6628799,124.5507278,55.050869,140.0726318,55.050869z"/>
	<path class="st1" d="M55.9054794,160.5594025c-6.5917511-16.5029144-3.7049408-40.2412491,9.4534225-45.4971313
		c13.1584473-5.2559738,31.6054153,9.9608688,38.1970749,26.4636841
		c6.5919342,16.5029144,1.2688217,34.141983-11.8896561,39.3978424
		C78.5080795,186.1797638,62.4973488,177.0623169,55.9054794,160.5594025z"/>
	<path class="st1" d="M304.0945129,160.5594025c-6.5918579,16.5029144-22.6026001,25.6203613-35.7608337,20.3643951
		c-13.1584778-5.2558594-18.4816284-22.894928-11.88974-39.3978424
		c6.5917358-16.5028152,25.0386963-31.7196579,38.1971741-26.4636841
		C307.799469,120.3181534,310.6862793,144.056488,304.0945129,160.5594025z"/>
	<path class="st1" d="M280.5475159,251.7186584c-3.0139465-13.5164032-10.1991577-25.7052002-18.1477966-37.0017548
		c-18.6213684-26.4649506-48.4466858-53.1888275-82.3995667-53.1889191c-33.8136292,0-63.7740631,26.7181396-82.3998642,53.1888275
		c-7.9486465,11.2966461-15.1338577,23.4854431-18.1478119,37.0018463
		c-3.0142212,13.51651-1.3657761,28.6307373,7.0074005,39.6108093c8.3731842,10.980011,24.2336731,16.4611816,36.6369934,10.5187073
		c7.3743362-3.5329285,13.3421402-10.6599426,21.4773026-11.3448792c7.468277-0.6286926,14.068222,4.4008179,20.2968292,8.6057739
		c4.5022125,3.0394592,9.9290009,5.8048401,15.1289368,5.8400574c5.2000427-0.0352173,10.6268311-2.8005981,15.1290588-5.8400574
		c6.2286072-4.2049561,12.828537-9.2344666,20.2968292-8.6057739c8.1351624,0.6849365,14.1029663,7.8119507,21.4772797,11.3448792
		c12.4033356,5.9424744,28.2638245,0.4613037,36.6369934-10.5187073
		C281.9132996,280.3493958,283.5617371,265.2351685,280.5475159,251.7186584z M209.577179,235.4377747
		c-3.8308258,7.0001984-9.8774109,13.1666412-14.9823914,17.9637604c-2.7444611,2.579071-5.6271057,4.9929047-8.6308746,7.2233124
		c-0.0056458,0.0041504-0.0114746,0.0084839-0.0176697,0.013031c-3.5291748,2.5975952-8.3634033,2.5975952-11.8924866,0
		c-0.0062103-0.0045471-0.0120239-0.0088806-0.0176697-0.013031c-3.0037842-2.2304077-5.8864136-4.6442413-8.6308746-7.2233124
		c-5.1049805-4.7971191-11.1515808-10.963562-14.9823914-17.9637604
		c-3.1641693-5.7817688-4.8167725-12.1321716-3.1789551-18.7495728c1.5697479-6.3422089,6.5759735-11.9138184,12.7142944-12.6917419
		c7.0975494-0.8995209,15.361145,4.0948792,20.0417786,9.831955c4.6807404-5.7370758,12.9443359-10.7314758,20.0418854-9.831955
		c6.1383362,0.7779236,11.1445465,6.3495331,12.7142944,12.6917419
		C214.3939514,223.305603,212.741333,229.6560059,209.577179,235.4377747z"/>
</g>
</svg>
